<svg xmlns="http://www.w3.org/2000/svg" viewBox="0 0 512 512" role="img" aria-label="KISY">
  <defs>
    <linearGradient id="kisyGrad" x1="0" y1="0" x2="1" y2="1">
      <stop offset="0" stop-color="#33c6f6"/>
      <stop offset="0.55" stop-color="#5a8bf6"/>
      <stop offset="1" stop-color="#7b34f2"/>
    </linearGradient>
  </defs>
  <rect x="24" y="24" width="464" height="464" rx="116" fill="#0a0a0c"/>
  <rect x="24.5" y="24.5" width="463" height="463" rx="115.5" fill="none" stroke="#ffffff" stroke-opacity="0.06"/>

  <!-- speech-bubble frame: open top + bottom arcs with a tail -->
  <g fill="none" stroke="url(#kisyGrad)" stroke-width="20" stroke-linecap="round" stroke-linejoin="round">
    <path d="M132 178 C132 141 151 128 187 128 L325 128 C361 128 380 141 380 178"/>
    <path d="M132 334 C132 371 151 384 187 384 L232 384 L248 414 L266 384 L325 384 C361 384 380 371 380 334"/>
  </g>

  <!-- KISY wordmark drawn as strokes so it renders without any font -->
  <g transform="translate(-4 0)" fill="none" stroke="#ffffff" stroke-width="24" stroke-linecap="round" stroke-linejoin="round">
    <!-- K -->
    <path d="M150 210 L150 302"/>
    <path d="M150 258 L196 210"/>
    <path d="M150 256 L200 302"/>
    <!-- I -->
    <path d="M232 210 L232 302"/>
    <!-- S -->
    <path d="M316 226 C302 213 272 213 272 236 C272 255 316 259 316 280 C316 303 286 303 270 289"/>
    <!-- Y (arms-up person; dot = head) -->
    <path d="M334 210 L356 252"/>
    <path d="M378 210 L356 252"/>
    <path d="M356 252 L356 302"/>
  </g>
  <circle cx="356" cy="196" r="10" fill="#ffffff"/>
</svg>
