<svg xmlns="http://www.w3.org/2000/svg" viewBox="0 0 512 512" role="img" aria-label="KISY">
  <defs>
    <linearGradient id="kisyGradM" x1="0" y1="0" x2="1" y2="1">
      <stop offset="0" stop-color="#33c6f6"/>
      <stop offset="0.55" stop-color="#5a8bf6"/>
      <stop offset="1" stop-color="#7b34f2"/>
    </linearGradient>
  </defs>
  <!-- Full-bleed background for maskable/adaptive icons (platform applies mask). -->
  <rect x="0" y="0" width="512" height="512" fill="#0a0a0c"/>

  <!-- Content kept inside the maskable safe zone (~80%). -->
  <g fill="none" stroke="url(#kisyGradM)" stroke-width="20" stroke-linecap="round" stroke-linejoin="round">
    <path d="M132 178 C132 141 151 128 187 128 L325 128 C361 128 380 141 380 178"/>
    <path d="M132 334 C132 371 151 384 187 384 L232 384 L248 414 L266 384 L325 384 C361 384 380 371 380 334"/>
  </g>
  <g transform="translate(-4 0)" fill="none" stroke="#ffffff" stroke-width="24" stroke-linecap="round" stroke-linejoin="round">
    <path d="M150 210 L150 302"/>
    <path d="M150 258 L196 210"/>
    <path d="M150 256 L200 302"/>
    <path d="M232 210 L232 302"/>
    <path d="M316 226 C302 213 272 213 272 236 C272 255 316 259 316 280 C316 303 286 303 270 289"/>
    <path d="M334 210 L356 252"/>
    <path d="M378 210 L356 252"/>
    <path d="M356 252 L356 302"/>
  </g>
  <circle cx="356" cy="196" r="10" fill="#ffffff"/>
</svg>
